<?xml version="1.0" encoding="utf-8"?>
<!-- Generator: Adobe Illustrator 22.0.1, SVG Export Plug-In . SVG Version: 6.00 Build 0)  -->
<svg version="1.1" id="Layer_1" xmlns="http://www.w3.org/2000/svg" xmlns:xlink="http://www.w3.org/1999/xlink" x="0px" y="0px"
	 viewBox="0 0 63.071 57.596" enable-background="new 0 0 63.071 57.596" xml:space="preserve">
<g>
	<path fill="#FFFFFF" d="M61.176,52.868c0,1.694-13.047,3.067-29.14,3.067c-16.094,0-29.139-1.373-29.139-3.067
		c0-1.694,13.046-3.068,29.139-3.068C48.129,49.801,61.176,51.175,61.176,52.868z"/>
	<path fill="#FEFEFE" d="M60.682,52.868c0,1.666-12.825,3.017-28.645,3.017c-15.821,0-28.645-1.351-28.645-3.017
		c0-1.666,12.824-3.018,28.645-3.018C47.856,49.851,60.682,51.202,60.682,52.868z"/>
	<path fill="#FEFDFD" d="M60.187,52.868c0,1.639-12.604,2.967-28.151,2.967c-15.548,0-28.151-1.328-28.151-2.967
		c0-1.639,12.603-2.968,28.151-2.968C47.583,49.9,60.187,51.23,60.187,52.868z"/>
	<path fill="#FDFCFC" d="M59.693,52.868c0,1.611-12.383,2.917-27.656,2.917c-15.275,0-27.656-1.306-27.656-2.917
		c0-1.611,12.382-2.918,27.656-2.918C47.31,49.95,59.693,51.257,59.693,52.868z"/>
	<path fill="#FDFBFC" d="M59.198,52.868c0,1.583-12.161,2.867-27.162,2.867c-15.002,0-27.162-1.284-27.162-2.867
		c0-1.583,12.16-2.868,27.162-2.868C47.037,50,59.198,51.285,59.198,52.868z"/>
	<path fill="#FCFAFB" d="M58.704,52.868c0,1.556-11.94,2.817-26.667,2.817c-14.728,0-26.667-1.261-26.667-2.817
		c0-1.556,11.939-2.818,26.667-2.818C46.764,50.05,58.704,51.312,58.704,52.868z"/>
	<path fill="#FBF9FA" d="M58.209,52.868c0,1.528-11.718,2.767-26.173,2.767c-14.455,0-26.173-1.239-26.173-2.767
		c0-1.528,11.717-2.768,26.173-2.768C46.491,50.1,58.209,51.34,58.209,52.868z"/>
	<path fill="#FBF8F9" d="M57.715,52.868c0,1.501-11.497,2.717-25.678,2.717c-14.182,0-25.678-1.217-25.678-2.717
		c0-1.501,11.496-2.718,25.678-2.718C46.218,50.15,57.715,51.367,57.715,52.868z"/>
	<path fill="#FAF7F8" d="M57.22,52.868c0,1.473-11.276,2.667-25.184,2.667c-13.909,0-25.184-1.194-25.184-2.667
		c0-1.473,11.275-2.668,25.184-2.668C45.945,50.2,57.22,51.395,57.22,52.868z"/>
	<path fill="#FAF6F7" d="M56.726,52.868c0,1.446-11.054,2.618-24.69,2.618c-13.636,0-24.69-1.172-24.69-2.618
		c0-1.446,11.053-2.618,24.69-2.618C45.672,50.25,56.726,51.423,56.726,52.868z"/>
	<path fill="#F9F5F6" d="M56.231,52.868c0,1.418-10.833,2.568-24.195,2.568c-13.363,0-24.195-1.15-24.195-2.568
		c0-1.418,10.832-2.568,24.195-2.568C45.398,50.3,56.231,51.45,56.231,52.868z"/>
	<path fill="#F8F4F6" d="M55.737,52.868c0,1.39-10.612,2.518-23.701,2.518c-13.09,0-23.701-1.127-23.701-2.518
		c0-1.39,10.611-2.518,23.701-2.518C45.125,50.35,55.737,51.478,55.737,52.868z"/>
	<path fill="#F8F3F5" d="M55.242,52.868c0,1.363-10.39,2.468-23.206,2.468c-12.817,0-23.206-1.105-23.206-2.468
		c0-1.363,10.389-2.469,23.206-2.469C44.852,50.4,55.242,51.505,55.242,52.868z"/>
	<path fill="#F7F2F4" d="M54.748,52.868c0,1.335-10.169,2.418-22.712,2.418c-12.544,0-22.712-1.083-22.712-2.418
		c0-1.335,10.168-2.419,22.712-2.419C44.579,50.45,54.748,51.533,54.748,52.868z"/>
	<path fill="#F6F1F3" d="M54.254,52.868c0,1.308-9.947,2.368-22.217,2.368c-12.271,0-22.217-1.06-22.217-2.368
		c0-1.308,9.947-2.369,22.217-2.369C44.306,50.499,54.254,51.56,54.254,52.868z"/>
	<path fill="#F6F0F2" d="M53.759,52.868c0,1.28-9.726,2.318-21.723,2.318c-11.998,0-21.723-1.038-21.723-2.318
		c0-1.28,9.725-2.319,21.723-2.319C44.033,50.549,53.759,51.588,53.759,52.868z"/>
	<path fill="#F5EFF1" d="M53.265,52.868c0,1.253-9.505,2.268-21.228,2.268c-11.725,0-21.229-1.015-21.229-2.268
		c0-1.253,9.504-2.269,21.229-2.269C43.76,50.599,53.265,51.616,53.265,52.868z"/>
	<path fill="#F5EEF0" d="M52.77,52.868c0,1.225-9.283,2.218-20.734,2.218c-11.452,0-20.734-0.993-20.734-2.218
		c0-1.225,9.283-2.219,20.734-2.219C43.487,50.649,52.77,51.643,52.77,52.868z"/>
	<path fill="#F4EDEF" d="M52.276,52.868c0,1.198-9.062,2.168-20.239,2.168c-11.179,0-20.24-0.971-20.24-2.168
		c0-1.197,9.061-2.169,20.24-2.169C43.214,50.699,52.276,51.671,52.276,52.868z"/>
	<path fill="#F3ECEF" d="M51.781,52.868c0,1.17-8.84,2.118-19.745,2.118c-10.905,0-19.745-0.948-19.745-2.118
		c0-1.17,8.84-2.119,19.745-2.119C42.941,50.749,51.781,51.698,51.781,52.868z"/>
	<path fill="#F3EBEE" d="M51.287,52.868c0,1.142-8.619,2.068-19.251,2.068c-10.632,0-19.251-0.926-19.251-2.068
		c0-1.142,8.618-2.069,19.251-2.069C42.668,50.799,51.287,51.726,51.287,52.868z"/>
	<path fill="#F2EAED" d="M50.792,52.868c0,1.115-8.398,2.019-18.756,2.019c-10.359,0-18.756-0.904-18.756-2.019
		c0-1.115,8.397-2.019,18.756-2.019C42.395,50.849,50.792,51.753,50.792,52.868z"/>
	<path fill="#F2E9EC" d="M50.298,52.868c0,1.087-8.176,1.969-18.262,1.969c-10.086,0-18.262-0.881-18.262-1.969
		c0-1.087,8.176-1.969,18.262-1.969C42.122,50.899,50.298,51.781,50.298,52.868z"/>
	<path fill="#F1E8EB" d="M49.803,52.868c0,1.06-7.955,1.919-17.767,1.919c-9.813,0-17.767-0.859-17.767-1.919
		c0-1.06,7.954-1.919,17.767-1.919C41.849,50.949,49.803,51.808,49.803,52.868z"/>
	<path fill="#F0E7EA" d="M49.309,52.868c0,1.032-7.733,1.869-17.273,1.869c-9.54,0-17.273-0.837-17.273-1.869
		c0-1.032,7.733-1.87,17.273-1.87C41.575,50.999,49.309,51.836,49.309,52.868z"/>
	<path fill="#F0E6E9" d="M48.815,52.868c0,1.005-7.512,1.819-16.778,1.819c-9.267,0-16.779-0.814-16.779-1.819
		c0-1.005,7.512-1.82,16.779-1.82C41.302,51.048,48.815,51.864,48.815,52.868z"/>
	<path fill="#EFE6E9" d="M48.32,52.868c0,0.977-7.291,1.769-16.284,1.769c-8.994,0-16.284-0.792-16.284-1.769
		c0-0.977,7.29-1.77,16.284-1.77C41.029,51.098,48.32,51.891,48.32,52.868z"/>
	<path fill="#EFE5E8" d="M47.826,52.868c0,0.95-7.069,1.719-15.789,1.719c-8.721,0-15.79-0.77-15.79-1.719
		c0-0.949,7.069-1.72,15.79-1.72C40.756,51.148,47.826,51.919,47.826,52.868z"/>
	<path fill="#EEE4E7" d="M47.331,52.868c0,0.922-6.848,1.669-15.295,1.669c-8.448,0-15.295-0.747-15.295-1.669
		c0-0.922,6.848-1.67,15.295-1.67C40.483,51.198,47.331,51.946,47.331,52.868z"/>
	<path fill="#EDE3E6" d="M46.837,52.868c0,0.894-6.627,1.619-14.8,1.619c-8.175,0-14.801-0.725-14.801-1.619
		c0-0.894,6.626-1.62,14.801-1.62C40.21,51.248,46.837,51.974,46.837,52.868z"/>
	<path fill="#EDE2E5" d="M46.342,52.868c0,0.867-6.405,1.569-14.306,1.569c-7.902,0-14.306-0.703-14.306-1.569
		c0-0.867,6.405-1.57,14.306-1.57C39.937,51.298,46.342,52.001,46.342,52.868z"/>
	<path fill="#ECE1E4" d="M45.848,52.868c0,0.839-6.184,1.519-13.811,1.519c-7.629,0-13.812-0.68-13.812-1.519
		c0-0.839,6.183-1.52,13.812-1.52C39.664,51.348,45.848,52.029,45.848,52.868z"/>
	<path fill="#ECE0E3" d="M45.353,52.868c0,0.812-5.962,1.47-13.317,1.47c-7.355,0-13.318-0.658-13.318-1.47
		c0-0.812,5.962-1.47,13.318-1.47C39.391,51.398,45.353,52.057,45.353,52.868z"/>
	<path fill="#EBDFE3" d="M44.859,52.868c0,0.784-5.741,1.42-12.823,1.42c-7.082,0-12.823-0.635-12.823-1.42
		c0-0.784,5.741-1.42,12.823-1.42C39.118,51.448,44.859,52.084,44.859,52.868z"/>
	<path fill="#EADEE2" d="M44.364,52.868c0,0.757-5.52,1.37-12.328,1.37c-6.809,0-12.329-0.613-12.329-1.37
		c0-0.756,5.519-1.37,12.329-1.37C38.845,51.498,44.364,52.112,44.364,52.868z"/>
	<path fill="#EADDE1" d="M43.87,52.868c0,0.729-5.298,1.32-11.834,1.32c-6.536,0-11.834-0.591-11.834-1.32
		c0-0.729,5.298-1.321,11.834-1.321C38.572,51.548,43.87,52.139,43.87,52.868z"/>
	<path fill="#E9DCE0" d="M43.375,52.868c0,0.701-5.077,1.27-11.339,1.27c-6.263,0-11.34-0.568-11.34-1.27
		c0-0.701,5.077-1.271,11.34-1.271C38.299,51.598,43.375,52.167,43.375,52.868z"/>
	<path fill="#E9DBDF" d="M42.881,52.868c0,0.674-4.855,1.22-10.845,1.22c-5.99,0-10.845-0.546-10.845-1.22
		c0-0.674,4.855-1.221,10.845-1.221C38.026,51.647,42.881,52.194,42.881,52.868z"/>
	<path fill="#E8DADE" d="M42.387,52.868c0,0.646-4.634,1.17-10.35,1.17c-5.717,0-10.351-0.524-10.351-1.17
		c0-0.646,4.634-1.171,10.351-1.171C37.752,51.697,42.387,52.222,42.387,52.868z"/>
	<path fill="#E7D9DD" d="M41.892,52.868c0,0.619-4.413,1.12-9.856,1.12c-5.444,0-9.857-0.501-9.857-1.12
		c0-0.619,4.413-1.121,9.857-1.121C37.479,51.747,41.892,52.25,41.892,52.868z"/>
	<path fill="#E7D8DC" d="M41.398,52.868c0,0.591-4.191,1.07-9.361,1.07c-5.171,0-9.362-0.479-9.362-1.07
		c0-0.591,4.191-1.071,9.362-1.071C37.206,51.797,41.398,52.277,41.398,52.868z"/>
	<path fill="#E6D7DC" d="M40.903,52.868c0,0.564-3.97,1.02-8.867,1.02c-4.898,0-8.868-0.457-8.868-1.02
		c0-0.564,3.97-1.021,8.868-1.021C36.933,51.847,40.903,52.305,40.903,52.868z"/>
	<path fill="#E5D6DB" d="M40.409,52.868c0,0.536-3.749,0.97-8.372,0.97c-4.625,0-8.373-0.434-8.373-0.97
		c0-0.536,3.748-0.971,8.373-0.971C36.66,51.897,40.409,52.332,40.409,52.868z"/>
	<path fill="#E5D5DA" d="M39.914,52.868c0,0.509-3.527,0.92-7.878,0.92c-4.352,0-7.879-0.412-7.879-0.92
		c0-0.508,3.527-0.921,7.879-0.921C36.387,51.947,39.914,52.36,39.914,52.868z"/>
	<path fill="#E4D4D9" d="M39.42,52.868c0,0.481-3.306,0.871-7.384,0.871c-4.079,0-7.384-0.39-7.384-0.871
		c0-0.481,3.306-0.871,7.384-0.871C36.114,51.997,39.42,52.387,39.42,52.868z"/>
	<path fill="#E4D3D8" d="M38.925,52.868c0,0.453-3.084,0.821-6.889,0.821c-3.805,0-6.89-0.367-6.89-0.821
		c0-0.453,3.084-0.821,6.89-0.821C35.841,52.047,38.925,52.415,38.925,52.868z"/>
	<path fill="#E3D2D7" d="M38.431,52.868c0,0.426-2.863,0.771-6.395,0.771c-3.532,0-6.395-0.345-6.395-0.771
		c0-0.426,2.863-0.771,6.395-0.771C35.568,52.097,38.431,52.442,38.431,52.868z"/>
	<path fill="#E2D1D6" d="M37.936,52.868c0,0.398-2.642,0.721-5.9,0.721c-3.259,0-5.901-0.322-5.901-0.721
		c0-0.398,2.642-0.722,5.901-0.722C35.295,52.147,37.936,52.47,37.936,52.868z"/>
	<path fill="#E2D0D6" d="M37.442,52.868c0,0.371-2.42,0.671-5.406,0.671c-2.986,0-5.407-0.3-5.407-0.671
		c0-0.371,2.42-0.672,5.407-0.672C35.022,52.196,37.442,52.498,37.442,52.868z"/>
	<path fill="#E1CFD5" d="M36.948,52.868c0,0.343-2.199,0.621-4.911,0.621c-2.713,0-4.912-0.278-4.912-0.621
		c0-0.343,2.199-0.622,4.912-0.622C34.749,52.246,36.948,52.525,36.948,52.868z"/>
	<path fill="#E1CED4" d="M36.453,52.868c0,0.316-1.977,0.571-4.417,0.571c-2.44,0-4.418-0.255-4.418-0.571
		c0-0.315,1.978-0.572,4.418-0.572C34.476,52.296,36.453,52.553,36.453,52.868z"/>
	<path fill="#E0CDD3" d="M35.959,52.868c0,0.288-1.756,0.521-3.922,0.521c-2.167,0-3.923-0.233-3.923-0.521
		c0-0.288,1.756-0.522,3.923-0.522C34.203,52.346,35.959,52.58,35.959,52.868z"/>
</g>
<path fill="#FFFFFF" d="M32.95,41.07c4.825,0,9.192-1.956,12.354-5.116c3.162-3.163,5.116-7.53,5.116-12.354
	c0-4.825-1.954-9.194-5.116-12.354c-3.163-3.163-7.53-5.118-12.354-5.118c-4.825,0-9.192,1.955-12.354,5.118
	c-3.161,3.16-5.117,7.529-5.117,12.354c0,4.825,1.956,9.192,5.117,12.354C23.758,39.114,28.125,41.07,32.95,41.07 M48.045,38.695
	c-3.864,3.863-9.2,6.252-15.095,6.252c-5.895,0-11.232-2.389-15.095-6.252c-3.864-3.863-6.254-9.2-6.254-15.095
	c0-5.897,2.39-11.233,6.254-15.097c3.864-3.862,9.2-6.252,15.095-6.252c5.894,0,11.231,2.39,15.095,6.252
	c3.864,3.864,6.254,9.2,6.254,15.097C54.299,29.494,51.908,34.831,48.045,38.695z"/>
<polygon fill="#FFFFFF" points="40.335,13.604 26.432,13.604 26.432,34.78 30.728,34.78 30.728,27.117 38.041,27.117 38.041,27.11 
	38.041,23.031 30.728,23.031 30.728,17.688 40.335,17.688 "/>
</svg>
