<svg xmlns="http://www.w3.org/2000/svg" width="48" height="32" viewBox="0 0 12 8"><g><g><path fill="#fff" d="M9.38 7.476L.992 7.474c-.144 0-.329-.017-.487-.147a.468.468 0 0 1-.18-.357 3.56 3.56 0 0 1 .352-1.721c.216-.445.517-.828.893-1.14a3.316 3.316 0 0 1 1.644-.75c.212-.032.426-.05.636-.051.457-.005.922-.004 1.372-.003h.605v-.01l.001-.12c.006-.186.102-.281.285-.282h1.952c.181 0 .276.094.282.278a2.4 2.4 0 0 1 0 .12V3.3h1.004l-.105-.28a16.61 16.61 0 0 0-.119-.311.26.26 0 0 0-.21-.174c-.373-.061-.744-.12-1.116-.178l-.52-.083-.51-.081a133.58 133.58 0 0 0-.622-.1l-.418-.066c-.522-.083-1.046-.166-1.568-.247-.395-.061-.648-.328-.679-.713A1.31 1.31 0 0 1 3.53.532.742.742 0 0 1 4.315.04c.61.082 1.226.168 1.823.25l1.15.16c.78.109 1.586.22 2.38.333.266.039.47.18.583.408.102.203.194.415.283.619l.098.222c.173.395.353.803.523 1.208.033.078.051.162.07.243l.024.106.023.093.012.052v3.259l-.007.01-.047.09c-.036.072-.073.145-.125.207-.098.118-.248.175-.455.175zm-5.529-4.07a4.533 4.533 0 0 0-.623.05 3.226 3.226 0 0 0-1.595.729 3.313 3.313 0 0 0-.869 1.107 3.45 3.45 0 0 0-.342 1.674.374.374 0 0 0 .145.285c.134.11.297.125.425.125l9.658.002c.18 0 .3-.045.38-.14.045-.054.077-.12.112-.187l.043-.082V3.74l-.008-.034c-.008-.031-.015-.062-.024-.092l-.025-.11c-.018-.08-.034-.156-.064-.226a67.242 67.242 0 0 0-.522-1.206l-.098-.223c-.089-.203-.18-.413-.28-.614a.644.644 0 0 0-.51-.354 585.31 585.31 0 0 0-2.38-.333L6.124.389C5.528.306 4.91.219 4.303.138a.645.645 0 0 0-.68.426c-.055.153-.056.309-.04.495.026.342.243.569.595.623.523.08 1.045.164 1.57.247l.417.067.621.099.51.082.52.083 1.115.178a.356.356 0 0 1 .288.235l.12.313.155.412H8.25v-.05l.001-.057v-.117c-.006-.13-.059-.182-.185-.183H6.113c-.13 0-.183.053-.187.188a2.243 2.243 0 0 0 0 .116v.109h-.704l-.536-.001c-.278 0-.557 0-.835.004zm1.933 3.668h-.05v-.006H1.011c-.118 0-.196 0-.243-.048-.044-.045-.046-.115-.044-.236.01-.817.29-1.526.836-2.108a3.06 3.06 0 0 1 1.204-.788 3.198 3.198 0 0 1 1.09-.18H5.8c1.173 0 2.346 0 3.52-.002a.614.614 0 0 0 .256-.046c.177-.083.241-.262.168-.47a8.767 8.767 0 0 0-.262-.675c-.095-.215-.27-.344-.522-.383l-.948-.15c-.159-.026-.316-.052-.474-.076l-.117-.02-2.033-.323c-.25-.04-.502-.08-.753-.118l-.446-.07a.35.35 0 0 1-.3-.32 2.172 2.172 0 0 1 0-.301.342.342 0 0 1 .396-.312l.924.13 1.258.176 1.656.228.783.108.197.027c.147.02.298.042.448.06a.469.469 0 0 1 .394.305c.264.61.5 1.142.72 1.624.15.33.222.65.22.975-.007.645-.006 1.3-.005 1.936l.001.77c0 .238-.054.292-.289.292zm.05-.104v.005h4.758c.18 0 .191-.011.191-.193V6.01c-.002-.635-.003-1.291.002-1.937a2.165 2.165 0 0 0-.21-.934 94.429 94.429 0 0 1-.72-1.625c-.066-.151-.164-.227-.317-.246-.15-.02-.302-.04-.448-.061l-.197-.027-.783-.107C7.557.997 7.006.922 6.453.844 6.034.788 5.614.729 5.195.67l-.924-.13a.256.256 0 0 0-.194.052.242.242 0 0 0-.09.17c-.008.09-.008.187 0 .288a.251.251 0 0 0 .217.23l.445.069.755.118 2.032.324.118.018c.158.026.315.05.473.077l.947.15c.288.044.49.193.598.44.105.236.192.477.265.682.09.256.004.488-.22.592a.71.71 0 0 1-.297.055c-1.173.002-2.347.002-3.52.002H3.853a3.101 3.101 0 0 0-1.055.175 2.936 2.936 0 0 0-1.166.762 2.94 2.94 0 0 0-.81 2.042c0 .07-.002.148.017.166.017.019.096.019.172.019z"/></g></g></svg>