<svg xmlns="http://www.w3.org/2000/svg" width="36" height="36" viewBox="0 0 9 9"><g><g><path fill="#ededed" d="M8.542 6.212c-.069.206-.205.36-.356.503-.379.364-.792.69-1.213 1.002-.47.35-.956.681-1.469.966a3.81 3.81 0 0 1-.747.333 1.236 1.236 0 0 1-.428.034 4.162 4.162 0 0 1-1.545-.373C1.718 8.181.972 7.383.551 6.285a4.116 4.116 0 0 1-.217-.83c-.019-.113-.05-.223-.072-.335a.649.649 0 0 1 .024-.34c.008-.02.023-.037.035-.055.191-.316.443-.58.71-.832.587-.554 1.236-1.028 1.906-1.476a19.725 19.725 0 0 1 2.024-1.2c.273-.139.55-.272.844-.36a.603.603 0 0 1 .498.064c.277.168.557.333.813.528a4.153 4.153 0 0 1 1.542 2.373 4.1 4.1 0 0 1 .115 1.047c-.01.46-.087.906-.23 1.343zM.632 4.717c.165.047.33.097.497.142.231.062.464.122.706.125a3.607 3.607 0 0 0 1.614-.358 3.974 3.974 0 0 0 1.47-1.21 4.4 4.4 0 0 0 .857-2.076c.015-.1 0-.208.07-.307-.028.008-.045.012-.062.018a5.77 5.77 0 0 0-.834.374 20.698 20.698 0 0 0-2.81 1.777 9.45 9.45 0 0 0-1.27 1.11c-.112.12-.214.25-.327.382l.088.023zm7.52 1.544a.191.191 0 0 0 .188-.119c.046-.098.091-.198.12-.302a4.022 4.022 0 0 0 .033-1.932 4.023 4.023 0 0 0-.883-1.752 4.129 4.129 0 0 0-.936-.8 1.33 1.33 0 0 0-.515-.202c-.046-.008-.094-.006-.14-.005-.029 0-.046.013-.049.046-.004.07-.014.14-.019.21 0 .014.013.034.024.044.015.013.036.018.055.026a3.53 3.53 0 0 1 1.398 1.103c.772 1.025.958 2.157.587 3.382-.032.107-.076.211-.116.32.087-.007.17-.02.253-.019zM.527 5.036a.884.884 0 0 0-.016.37c.088.608.302 1.17.651 1.676a4.023 4.023 0 0 0 2.526 1.703c.242.054.49.081.738.086.08.001.134-.033.163-.095.037-.082.077-.163.115-.246l.018-.043c-.144 0-.283.006-.419-.002a3.05 3.05 0 0 1-.415-.049c-1.287-.256-2.2-.986-2.737-2.18a3.378 3.378 0 0 1-.284-1.229c-.002-.04-.014-.063-.056-.073-.073-.017-.144-.04-.229-.065-.02.051-.042.098-.055.147zm4.241 3.785c.016-.004.03-.005.04-.01.178-.08.361-.153.534-.244.41-.22.797-.474 1.176-.743.52-.369 1.026-.755 1.494-1.19.064-.06.125-.125.187-.187a3.952 3.952 0 0 0-3.43 2.374z"/></g></g></svg>